<?xml version="1.0" encoding="UTF-8"?>
<!DOCTYPE svg PUBLIC "-//W3C//DTD SVG 1.1//EN" "http://www.w3.org/Graphics/SVG/1.1/DTD/svg11.dtd">
<!-- Creator: CorelDRAW 2018 (64-Bit) -->
<svg xmlns="http://www.w3.org/2000/svg" xml:space="preserve" width="0.833331in" height="0.833331in" version="1.1" style="shape-rendering:geometricPrecision; text-rendering:geometricPrecision; image-rendering:optimizeQuality; fill-rule:evenodd; clip-rule:evenodd"
viewBox="0 0 833.33 833.33"
 xmlns:xlink="http://www.w3.org/1999/xlink">
 <defs>
  <style type="text/css">
   <![CDATA[
    .fil0 {fill-rule:nonzero}
   ]]>
  </style>
 </defs>
 <g id="Layer_x0020_1">
  <metadata id="CorelCorpID_0Corel-Layer"/>
  <path class="fil0" d="M587.19 615.24l-340.85 0 0 -443.5 340.85 0 0 443.5zm23.41 61.07l0 -519.29c-2.48,-31.4 -28.94,-56.33 -60.96,-56.33l-265.74 0c-33.64,0 -61.15,27.52 -61.15,61.15l0 509.65c0,33.63 27.52,61.15 61.15,61.15l265.74 0c32.02,0 58.48,-24.93 60.96,-56.33zm-193.82 21.88c-14.3,0 -25.89,-11.58 -25.89,-25.88 0,-14.3 11.58,-25.88 25.89,-25.88 14.3,0 25.88,11.58 25.88,25.88 0,14.3 -11.58,25.88 -25.88,25.88zm-63.03 -568.28l126.04 0c2.47,0 4.5,2.03 4.5,4.5 0,2.48 -2.03,4.5 -4.5,4.5l-126.04 0c-2.47,0 -4.5,-2.03 -4.5,-4.5 0,-2.47 2.03,-4.5 4.5,-4.5z"/>
 </g>
</svg>
