<?xml version="1.0" encoding="UTF-8"?>
<!DOCTYPE svg PUBLIC "-//W3C//DTD SVG 1.1//EN" "http://www.w3.org/Graphics/SVG/1.1/DTD/svg11.dtd">
<!-- Creator: CorelDRAW 2018 (64-Bit) -->
<svg xmlns="http://www.w3.org/2000/svg" xml:space="preserve" width="0.833331in" height="0.833331in" version="1.1" style="shape-rendering:geometricPrecision; text-rendering:geometricPrecision; image-rendering:optimizeQuality; fill-rule:evenodd; clip-rule:evenodd"
viewBox="0 0 833.33 833.33"
 xmlns:xlink="http://www.w3.org/1999/xlink">
 <defs>
  <style type="text/css">
   <![CDATA[
    .fil0 {fill-rule:nonzero}
   ]]>
  </style>
 </defs>
 <g id="Layer_x0020_1">
  <metadata id="CorelCorpID_0Corel-Layer"/>
  <g id="_2310515404848">
   <path class="fil0" d="M590.46 279.92l-18.78 0.07 18.78 310.48 -347.58 0 18.8 -309.5 -18.8 -0.45 0 -37.63 347.58 0 0 37.03zm39.99 -140.64l-427.56 0c-35.13,0 -63.6,28.49 -63.6,63.61l0 427.56c0,35.14 28.48,63.6 63.6,63.6l427.56 0c35.13,0 63.6,-28.46 63.6,-63.6l0 -427.56c0,-35.13 -28.48,-63.61 -63.6,-63.61z"/>
   <polygon class="fil0" points="283.15,545.63 550.19,545.63 550.19,522 283.15,522 "/>
   <polygon class="fil0" points="283.15,489.3 550.19,489.3 550.19,465.68 283.15,465.68 "/>
   <polygon class="fil0" points="283.15,432.97 550.19,432.97 550.19,409.35 283.15,409.35 "/>
   <polygon class="fil0" points="283.15,376.65 550.19,376.65 550.19,353.02 283.15,353.02 "/>
  </g>
 </g>
</svg>
