<?xml version="1.0" encoding="UTF-8"?>
<!DOCTYPE svg PUBLIC "-//W3C//DTD SVG 1.1//EN" "http://www.w3.org/Graphics/SVG/1.1/DTD/svg11.dtd">
<!-- Creator: CorelDRAW 2018 (64-Bit) -->
<svg xmlns="http://www.w3.org/2000/svg" xml:space="preserve" width="1.33333in" height="0.4in" version="1.1" style="shape-rendering:geometricPrecision; text-rendering:geometricPrecision; image-rendering:optimizeQuality; fill-rule:evenodd; clip-rule:evenodd"
viewBox="0 0 1333.33 400"
 xmlns:xlink="http://www.w3.org/1999/xlink">
 <defs>
  <style type="text/css">
   <![CDATA[
    .fil2 {fill:black;fill-rule:nonzero}
    .fil0 {fill:#18AB9F;fill-rule:nonzero}
    .fil1 {fill:#333333;fill-rule:nonzero}
   ]]>
  </style>
 </defs>
 <g id="Layer_x0020_1">
  <metadata id="CorelCorpID_0Corel-Layer"/>
  <g id="_1917262929696">
   <path class="fil0" d="M432.34 20.37c-29.58,0 -53.56,23.98 -53.56,53.56l0 214.26c0,29.58 23.98,53.56 53.56,53.56 29.58,0 53.56,-23.98 53.56,-53.56l0 -214.26c0,-29.58 -23.98,-53.56 -53.56,-53.56z"/>
   <path class="fil1" d="M1235.8 288.19c0,-29.58 -23.98,-53.56 -53.57,-53.56l-214.26 0c-29.58,0 -53.56,23.98 -53.56,53.56 0,29.58 23.98,53.56 53.56,53.56l214.26 0c29.59,0 53.57,-23.98 53.57,-53.56z"/>
   <path class="fil1" d="M967.98 20.37l-0 0c-29.58,0 -53.56,23.98 -53.56,53.56l0 214.26c0,29.58 23.98,53.56 53.56,53.56l53.57 0 0 -267.82c0,-29.58 -23.98,-53.56 -53.56,-53.56z"/>
   <path class="fil1" d="M1182.23 20.37c-29.58,0 -53.56,23.98 -53.56,53.56l0 214.26c0,29.58 23.98,53.56 53.56,53.56 29.58,0 53.57,-23.98 53.57,-53.56l0 -214.26c0,-29.58 -23.98,-53.56 -53.57,-53.56z"/>
   <path class="fil1" d="M1146.63 250.31l-0 0c-20.92,20.92 -20.92,54.83 0,75.75l37.88 37.87c20.92,20.92 54.83,20.92 75.75,0 20.92,-20.92 20.92,-54.83 0,-75.75l-37.87 -37.87c-20.92,-20.92 -54.83,-20.92 -75.75,0z"/>
   <path class="fil0" d="M700.16 120.8c33.23,0 60.26,27.03 60.26,60.26 0,33.22 -27.03,60.26 -60.26,60.26 -33.22,0 -60.26,-27.04 -60.26,-60.26 0,-33.23 27.03,-60.26 60.26,-60.26zm0 -100.43l0 0c-88.74,0 -160.69,71.94 -160.69,160.69 0,88.75 71.94,160.69 160.69,160.69 88.75,0 160.69,-71.94 160.69,-160.69 0,-88.75 -71.94,-160.69 -160.69,-160.69z"/>
   <path class="fil1" d="M110.96 20.37l160.69 0c29.58,0 53.56,23.98 53.56,53.56 0,29.58 -23.98,53.56 -53.56,53.56l-160.69 0c-29.58,0 -53.56,-23.98 -53.56,-53.56 0,-29.58 23.98,-53.56 53.56,-53.56z"/>
   <path class="fil1" d="M164.52 20.37l-53.56 0c-29.58,0 -53.56,23.98 -53.56,53.56l0 214.26c0,29.58 23.98,53.56 53.56,53.56 29.58,0 53.56,-23.98 53.56,-53.56l0 -267.82z"/>
   <polygon class="fil2" points="1021.54,234.63 1021.54,341.75 1128.67,341.75 "/>
   <polygon class="fil2" points="164.52,20.37 164.52,127.5 271.65,127.5 "/>
  </g>
 </g>
</svg>
