<?xml version="1.0" encoding="UTF-8"?>
<!DOCTYPE svg PUBLIC "-//W3C//DTD SVG 1.1//EN" "http://www.w3.org/Graphics/SVG/1.1/DTD/svg11.dtd">
<!-- Creator: CorelDRAW 2018 (64-Bit) -->
<svg xmlns="http://www.w3.org/2000/svg" xml:space="preserve" width="0.833331in" height="0.833331in" version="1.1" style="shape-rendering:geometricPrecision; text-rendering:geometricPrecision; image-rendering:optimizeQuality; fill-rule:evenodd; clip-rule:evenodd"
viewBox="0 0 833.33 833.33"
 xmlns:xlink="http://www.w3.org/1999/xlink">
 <defs>
  <style type="text/css">
   <![CDATA[
    .fil0 {fill-rule:nonzero}
   ]]>
  </style>
 </defs>
 <g id="Layer_x0020_1">
  <metadata id="CorelCorpID_0Corel-Layer"/>
  <path class="fil0" d="M757.48 476.27l-419.97 0 0 -29.87c0,-15.81 12.94,-28.75 28.75,-28.75l362.47 0c15.81,0 28.75,12.94 28.75,28.75l0 29.87zm0 197.19c0,15.81 -12.93,28.74 -28.75,28.74l-362.47 0c-15.81,0 -28.75,-12.93 -28.75,-28.74l0 -113.53 419.97 0 0 113.53zm-367.13 -527.78l54.73 67.54 -67.52 54.72 -54.73 -67.52 67.52 -54.74zm346.78 239.26l-161.65 0 4.52 -3.66c21.13,-17.13 24.41,-48.43 7.28,-69.56l-158.08 -195.04c-9.6,-11.84 -23.64,-18.07 -37.86,-18.26l-1.36 0c-10.7,0.16 -21.43,3.75 -30.34,10.98l-294.65 238.81c-21.13,17.12 -24.4,48.43 -7.28,69.56l158.09 195.04c17.12,21.13 48.43,24.41 69.56,7.28l23.04 -18.68 0 84.04c0,27.2 22.26,49.46 49.45,49.46l379.26 0c27.2,0 49.46,-22.26 49.46,-49.46l0 -251.06c0,-27.2 -22.26,-49.46 -49.46,-49.46z"/>
 </g>
</svg>
