<?xml version="1.0" encoding="UTF-8"?>
<!DOCTYPE svg PUBLIC "-//W3C//DTD SVG 1.1//EN" "http://www.w3.org/Graphics/SVG/1.1/DTD/svg11.dtd">
<!-- Creator: CorelDRAW 2018 (64-Bit) -->
<svg xmlns="http://www.w3.org/2000/svg" xml:space="preserve" width="0.833331in" height="0.833331in" version="1.1" style="shape-rendering:geometricPrecision; text-rendering:geometricPrecision; image-rendering:optimizeQuality; fill-rule:evenodd; clip-rule:evenodd"
viewBox="0 0 833.33 833.33"
 xmlns:xlink="http://www.w3.org/1999/xlink">
 <defs>
  <style type="text/css">
   <![CDATA[
    .fil0 {fill-rule:nonzero}
   ]]>
  </style>
 </defs>
 <g id="Layer_x0020_1">
  <metadata id="CorelCorpID_0Corel-Layer"/>
  <g id="_1934456511840">
   <path class="fil0" d="M416.67 275.79c-23.32,0 -42.22,18.9 -42.22,42.21 0,23.32 18.9,42.22 42.22,42.22 23.31,0 42.21,-18.89 42.21,-42.22 0,-23.31 -18.9,-42.21 -42.21,-42.21z"/>
   <path class="fil0" d="M416.67 432.12c-48.75,0 -88.27,-39.52 -88.27,-88.27 0,-48.75 39.52,-88.27 88.27,-88.27 48.75,0 88.26,39.52 88.26,88.27 0,48.75 -39.52,88.27 -88.26,88.27zm-128.09 -203.2c-0.98,-1.3 -2.02,-2.55 -2.85,-3.99 -12.65,-21.91 -5.14,-49.91 16.76,-62.55 18.64,-10.76 42.35,-6.22 56.6,8.67 0.22,-0.1 0.45,-0.16 0.69,-0.27 -29.26,11.72 -54.06,32.17 -71.19,58.13zm85.83 -62.96c-4.91,1.41 -9.8,2.89 -14.49,4.76 4.6,-2.13 9.49,-3.56 14.49,-4.76zm98.93 4.74c-4.58,-1.82 -9.34,-3.25 -14.13,-4.64 4.91,1.2 9.68,2.63 14.13,4.64zm1.19 0.47c14.24,-14.9 37.67,-19.56 56.31,-8.79 21.9,12.64 29.41,40.64 16.76,62.55 -0.84,1.44 -1.89,2.69 -2.86,3.99 -17.13,-25.94 -41.91,-46.4 -71.13,-58.11 0.3,0.14 0.62,0.22 0.92,0.36zm94.62 370.03c-0.05,-0.57 0.05,0.55 0,0 22.99,-3.96 40.54,-23.89 40.54,-48.01 0,-26.97 -21.87,-48.84 -48.84,-48.84 -10.98,0 -20.99,3.75 -29.14,9.86 -6.37,-7.24 -13.34,-13.96 -20.96,-19.9 36.06,-28.06 59.35,-71.78 59.35,-121.02 0,-20.13 -3.95,-39.33 -11.04,-56.92l0.58 -0.17 1.23 -0.61c7.38,-5.84 13.85,-13.1 18.85,-21.76 21.18,-36.7 8.61,-83.61 -28.09,-104.79 -36.69,-21.19 -83.61,-8.61 -104.79,28.07 -0.35,0.61 -2.54,4.56 -2.87,5.17 1.52,0.45 3.1,0.81 4.66,1.2 -10.33,-2.2 -20.96,-3.63 -31.96,-3.63 -11.07,0 -21.78,1.44 -32.18,3.68 1.58,-0.4 3.18,-0.77 4.74,-1.22 -0.33,-0.62 -2.39,-4.59 -2.74,-5.2 -21.19,-36.69 -68.1,-49.26 -104.79,-28.07 -36.69,21.18 -49.26,68.09 -28.09,104.79 5,8.65 11.47,15.92 18.87,21.76l1.64 1.19c-6.99,17.48 -10.88,36.52 -10.88,56.51 0,49.24 23.28,92.95 59.35,121.02 -7.62,5.94 -14.59,12.66 -20.96,19.9 -8.15,-6.11 -18.17,-9.86 -29.14,-9.86 -26.97,0 -48.84,21.87 -48.84,48.84 0,24.13 17.53,44.05 40.54,48.01 -0.06,0.55 0.95,-0.13 0.91,0.43 27.89,0.56 58.3,20.18 80.01,51.65 24.65,35.76 28.75,77.19 13.3,103.69 17.98,7.38 37.63,11.52 58.26,11.52 20.63,0 40.28,-4.14 58.26,-11.52 -15.46,-26.5 -11.35,-67.94 13.3,-103.69 21.7,-31.47 50.43,-50.47 80.93,-52.08z"/>
   <path class="fil0" d="M224.98 568.89c-27.07,18.66 -27.74,64.65 -1.49,102.7 26.24,38.07 69.46,53.79 96.52,35.13 27.07,-18.66 27.73,-64.65 1.49,-102.71 -26.25,-38.06 -69.46,-53.78 -96.52,-35.13z"/>
   <path class="fil0" d="M608.37 568.89c-27.07,-18.66 -70.29,-2.94 -96.54,35.13 -26.24,38.06 -25.57,84.05 1.49,102.71 27.07,18.66 70.28,2.94 96.53,-35.13 26.24,-38.06 25.57,-84.04 -1.48,-102.7z"/>
  </g>
 </g>
</svg>
