<?xml version="1.0" encoding="UTF-8"?>
<!DOCTYPE svg PUBLIC "-//W3C//DTD SVG 1.1//EN" "http://www.w3.org/Graphics/SVG/1.1/DTD/svg11.dtd">
<!-- Creator: CorelDRAW 2018 (64-Bit) -->
<svg xmlns="http://www.w3.org/2000/svg" xml:space="preserve" width="0.833331in" height="0.833331in" version="1.1" style="shape-rendering:geometricPrecision; text-rendering:geometricPrecision; image-rendering:optimizeQuality; fill-rule:evenodd; clip-rule:evenodd"
viewBox="0 0 833.33 833.33"
 xmlns:xlink="http://www.w3.org/1999/xlink">
 <defs>
  <style type="text/css">
   <![CDATA[
    .fil0 {fill-rule:nonzero}
   ]]>
  </style>
 </defs>
 <g id="Layer_x0020_1">
  <metadata id="CorelCorpID_0Corel-Layer"/>
  <path class="fil0" d="M654.7 509.36l-95.78 33.48c-3.67,-14.15 -2.11,-28.95 4.62,-35.89l67 -69.18c8.26,-8.55 21.21,-2.06 28.76,14.43l10.23 22.33c6.3,13.7 -0.59,29.83 -14.83,34.82zm-235.56 -205.83c-0.81,0 -1.66,0.03 -2.47,0.03 -0.83,0 -1.67,-0.03 -2.5,-0.03 -62.62,0 -139.85,12.55 -176.51,21.2l14.38 -72.61c6.61,-33.88 38.48,-48.19 76.95,-48.19l175.33 0c38.48,0 70.36,14.3 76.96,48.19l14.37 72.61c-36.67,-8.65 -113.89,-21.2 -176.52,-21.2zm-144.72 239.31l-95.8 -33.48c-14.24,-4.99 -21.11,-21.12 -14.83,-34.82l10.23 -22.33c7.55,-16.49 20.49,-22.98 28.76,-14.43l67.01 69.18c6.72,6.94 8.27,21.73 4.62,35.89zm447.69 -71.04c0.22,-1.87 -3.06,-14.85 -3.06,-14.85l-1.71 -7.4c-16.93,-46.94 -41.33,-79.92 -65.36,-100.02l28.92 -6.11c17.77,-6.45 27.02,-26.25 20.57,-44 -6.45,-17.76 -8.5,-33.44 -26.25,-27.01l-51.65 19.15 -4.45 -27.22c-7.39,-38.15 -30.22,-94.98 -113.2,-96.11l-178.48 0c-82.99,1.14 -105.82,57.97 -113.21,96.11l-4.45 27.22 -51.65 -19.15c-17.75,-6.43 -19.8,9.25 -26.25,27.01 -6.45,17.76 2.8,37.55 20.57,44l28.92 6.11c-24.04,20.1 -48.43,53.08 -65.37,100.02l-1.69 7.4c0,0 -3.3,12.98 -3.07,14.85 -0.03,0.89 -0.15,1.76 -0.15,2.65l0 113.77c0,76.9 14.48,76.9 85.11,76.9 55.77,0 67.61,-13.17 67.61,-45.56 30.86,9.38 87.41,16.28 140.17,16.28 4.31,0 8.48,-0.15 12.7,-0.22 4.23,0.08 8.39,0.22 12.69,0.22 52.76,0 109.31,-6.9 140.17,-16.28 0,32.39 11.85,45.56 67.61,45.56 70.64,0 85.11,0 85.11,-76.9l0 -113.77c0,-0.89 -0.11,-1.76 -0.15,-2.65z"/>
 </g>
</svg>
